<svg width="180" height="180" viewBox="0 0 180 180" fill="none" xmlns="http://www.w3.org/2000/svg">
  <circle cx="90" cy="92" r="82" fill="#EDF8D9"/>
  <ellipse cx="90" cy="147" rx="58" ry="15" fill="#CFE4AF"/>

  <path d="M58 50C42 34 35 17 42 10C50 2 67 17 72 43" fill="#61574E"/>
  <path d="M122 50C138 34 145 17 138 10C130 2 113 17 108 43" fill="#61574E"/>
  <path d="M58 43C49 32 47 22 51 18C56 14 65 26 68 44" fill="#EFB49B"/>
  <path d="M122 43C131 32 133 22 129 18C124 14 115 26 112 44" fill="#EFB49B"/>

  <path d="M47 76C29 64 15 65 11 76C8 88 29 98 50 91" fill="#827366"/>
  <path d="M133 76C151 64 165 65 169 76C172 88 151 98 130 91" fill="#827366"/>
  <ellipse cx="90" cy="85" rx="54" ry="52" fill="#7B6D61"/>
  <ellipse cx="90" cy="103" rx="40" ry="33" fill="#B9A89B"/>
  <ellipse cx="90" cy="74" rx="36" ry="31" fill="#8C7D70"/>

  <circle cx="68" cy="80" r="15" fill="#22272E"/>
  <circle cx="112" cy="80" r="15" fill="#22272E"/>
  <circle cx="64" cy="74" r="5" fill="white"/>
  <circle cx="108" cy="74" r="5" fill="white"/>
  <circle cx="73" cy="84" r="2.8" fill="#F6D0C3"/>
  <circle cx="117" cy="84" r="2.8" fill="#F6D0C3"/>

  <ellipse cx="78" cy="101" rx="7" ry="5.5" fill="#3B332E"/>
  <ellipse cx="102" cy="101" rx="7" ry="5.5" fill="#3B332E"/>
  <path d="M77 117C84 125 96 125 103 117" stroke="#3B332E" stroke-width="5" stroke-linecap="round"/>
  <circle cx="53" cy="99" r="8" fill="#E9A99A" opacity="0.55"/>
  <circle cx="127" cy="99" r="8" fill="#E9A99A" opacity="0.55"/>

  <path d="M74 49C76 33 82 26 90 26C98 26 104 33 106 49" fill="#5C524A"/>
  <path d="M77 43C80 32 85 27 90 27C95 27 100 32 103 43" stroke="#3A332E" stroke-width="5" stroke-linecap="round"/>
  <path d="M67 48C69 39 76 35 81 36" stroke="#9C8E80" stroke-width="4" stroke-linecap="round"/>
  <path d="M113 48C111 39 104 35 99 36" stroke="#9C8E80" stroke-width="4" stroke-linecap="round"/>

  <path d="M45 127C57 148 73 158 90 158C107 158 123 148 135 127" fill="#6F6257"/>
  <path d="M46 130C60 153 76 164 90 164C104 164 120 153 134 130" stroke="#5B5149" stroke-width="8" stroke-linecap="round"/>
  <path d="M131 126C143 121 152 111 154 99" stroke="#5B5149" stroke-width="6" stroke-linecap="round"/>
  <circle cx="154" cy="96" r="4" fill="#5B5149"/>

  <path d="M30 130C24 137 21 145 23 153" stroke="#2E7D44" stroke-width="5" stroke-linecap="round"/>
  <path d="M30 142C38 135 46 134 54 137" stroke="#2E7D44" stroke-width="5" stroke-linecap="round"/>
  <path d="M26 153C36 147 47 147 57 151" stroke="#2E7D44" stroke-width="5" stroke-linecap="round"/>
  <path d="M33 128L29 114" stroke="#B78A31" stroke-width="4" stroke-linecap="round"/>
  <path d="M40 126L37 111" stroke="#C9A23A" stroke-width="4" stroke-linecap="round"/>
  <path d="M47 128L46 114" stroke="#B78A31" stroke-width="4" stroke-linecap="round"/>

  <path d="M138 42L142 34L146 42L154 46L146 50L142 58L138 50L130 46L138 42Z" fill="#F6C84C"/>
</svg>
